jumper10dof24musc.osim_states
version=1
nRows=4
nColumns=69
inDegrees=yes

# SIMM Motion File Header:
name jumper10dof24musc.osim_states
datacolumns 69
datarows 4
otherdata 1
range 0.24716710 0.24787656
endheader
time	pelvis_tilt	pelvis_tx	pelvis_ty	hip_flexion_r	knee_angle_r	ankle_angle_r	hip_flexion_l	knee_angle_l	ankle_angle_l	lumbar_extension	pelvis_tilt_u	pelvis_tx_u	pelvis_ty_u	hip_flexion_r_u	knee_angle_r_u	ankle_angle_r_u	hip_flexion_l_u	knee_angle_l_u	ankle_angle_l_u	lumbar_extension_u	hamstrings_r.activation	hamstrings_r.fiber_length	bifemsh_r.activation	bifemsh_r.fiber_length	glut_max_r.activation	glut_max_r.fiber_length	iliopsoas_r.activation	iliopsoas_r.fiber_length	rect_fem_r.activation	rect_fem_r.fiber_length	vasti_r.activation	vasti_r.fiber_length	gastroc_r.activation	gastroc_r.fiber_length	soleus_r.activation	soleus_r.fiber_length	tib_ant_r.activation	tib_ant_r.fiber_length	ercspn_r.activation	ercspn_r.fiber_length	intobl_r.activation	intobl_r.fiber_length	extobl_r.activation	extobl_r.fiber_length	hamstrings_l.activation	hamstrings_l.fiber_length	bifemsh_l.activation	bifemsh_l.fiber_length	glut_max_l.activation	glut_max_l.fiber_length	iliopsoas_l.activation	iliopsoas_l.fiber_length	rect_fem_l.activation	rect_fem_l.fiber_length	vasti_l.activation	vasti_l.fiber_length	gastroc_l.activation	gastroc_l.fiber_length	soleus_l.activation	soleus_l.fiber_length	tib_ant_l.activation	tib_ant_l.fiber_length	ercspn_l.activation	ercspn_l.fiber_length	intobl_l.activation	intobl_l.fiber_length	extobl_l.activation	extobl_l.fiber_length
      0.24716710	     -7.78918099	      0.06064802	      0.90576615	     27.02841479	    -30.68724354	     11.21224204	     27.02841697	    -30.68724229	     11.21223860	    -11.73714313	    158.95486568	      0.73642368	      1.90209740	   -665.55872651	    867.97840526	   -375.63207518	   -665.55873456	    867.97841174	   -375.63207568	     -4.65225672	      0.84271652	      0.09895933	      0.19837019	      0.15597004	      0.99969345	      0.10456539	      0.08660358	      0.08043608	      0.81199642	      0.09631166	      0.99997950	      0.08901184	      0.15524178	      0.08609496	      0.78449456	      0.05058077	      0.13333049	      0.06844137	      0.99999800	      0.12688050	      0.83515487	      0.08560222	      0.26278951	      0.11756712	      0.84271652	      0.09895933	      0.19837019	      0.15597004	      0.99969345	      0.10456539	      0.08660358	      0.08043608	      0.81199642	      0.09631166	      0.99997950	      0.08901184	      0.15524178	      0.08609496	      0.78449456	      0.05058077	      0.13333049	      0.06844137	      0.99999800	      0.12688050	      0.83515487	      0.08560222	      0.26278951	      0.11756712
      0.24740359	     -7.75155041	      0.06082267	      0.90621584	     26.87073466	    -30.48153730	     11.12311643	     26.87073684	    -30.48153604	     11.12311298	    -11.73819840	    159.29114006	      0.74064308	      1.90096466	   -667.96530535	    871.71124168	   -378.12019064	   -667.96531340	    871.71124820	   -378.12019118	     -4.26916085	      0.83894401	      0.09892057	      0.19804845	      0.15608763	      0.99969705	      0.10444118	      0.08663835	      0.08055082	      0.81075841	      0.09630512	      0.99997975	      0.08886064	      0.15554412	      0.08609767	      0.78014184	      0.05054171	      0.13295748	      0.06851664	      0.99999802	      0.12688172	      0.83736201	      0.08559509	      0.26354156	      0.11756314	      0.83894401	      0.09892057	      0.19804845	      0.15608763	      0.99969705	      0.10444118	      0.08663835	      0.08055081	      0.81075841	      0.09630512	      0.99997975	      0.08886064	      0.15554412	      0.08609767	      0.78014184	      0.05054170	      0.13295748	      0.06851664	      0.99999802	      0.12688172	      0.83736201	      0.08559509	      0.26354156	      0.11756314
      0.24764007	     -7.71384076	      0.06099832	      0.90666525	     26.71248623	    -30.27494819	     11.03340141	     26.71248840	    -30.27494693	     11.03339796	    -11.73916240	    159.62663982	      0.74487269	      1.89978516	   -670.37187964	    875.45382025	   -380.61789175	   -670.37188769	    875.45382681	   -380.61789233	     -3.88375151	      0.83514626	      0.09888183	      0.19772792	      0.15617978	      0.99970061	      0.10431632	      0.08667833	      0.08066588	      0.80951916	      0.09629830	      0.99997998	      0.08870864	      0.15584679	      0.08610036	      0.77576886	      0.05050251	      0.13258647	      0.06859237	      0.99999805	      0.12688292	      0.83953555	      0.08558806	      0.26430067	      0.11755916	      0.83514626	      0.09888184	      0.19772792	      0.15617978	      0.99970061	      0.10431633	      0.08667833	      0.08066588	      0.80951916	      0.09629829	      0.99997998	      0.08870864	      0.15584679	      0.08610036	      0.77576886	      0.05050251	      0.13258647	      0.06859237	      0.99999805	      0.12688292	      0.83953555	      0.08558806	      0.26430067	      0.11755916
      0.24787656	     -7.67605274	      0.06117497	      0.90711438	     26.55367070	    -30.06747558	     10.94309504	     26.55367287	    -30.06747432	     10.94309160	    -11.74003407	    159.95084261	      0.74909808	      1.89853435	   -672.75415439	    879.17369215	   -383.11982588	   -672.75416243	    879.17369875	   -383.11982651	     -3.48493746	      0.83132386	      0.09884312	      0.19740860	      0.15629903	      0.99970413	      0.10419084	      0.08672331	      0.08078129	      0.80827867	      0.09629119	      0.99998022	      0.08855583	      0.15614975	      0.08610304	      0.77137618	      0.05046318	      0.13221743	      0.06866855	      0.99999807	      0.12688408	      0.84167614	      0.08558111	      0.26506661	      0.11755519	      0.83132386	      0.09884313	      0.19740860	      0.15629904	      0.99970413	      0.10419084	      0.08672331	      0.08078128	      0.80827867	      0.09629118	      0.99998022	      0.08855583	      0.15614975	      0.08610304	      0.77137618	      0.05046318	      0.13221743	      0.06866856	      0.99999807	      0.12688408	      0.84167614	      0.08558111	      0.26506661	      0.11755519
